<svg xmlns="http://www.w3.org/2000/svg" xmlns:xlink="http://www.w3.org/1999/xlink" width="393" zoomAndPan="magnify" viewBox="0 0 294.75 69.749997" height="93" preserveAspectRatio="xMidYMid meet" version="1.0"><defs><g/><clipPath id="b73b7a76a0"><path d="M 0.984375 4.773438 L 61.300781 4.773438 L 61.300781 65.089844 L 0.984375 65.089844 Z M 0.984375 4.773438 " clip-rule="nonzero"/></clipPath><clipPath id="b6d6ec4995"><path d="M 45.476562 65.089844 L 16.808594 65.089844 C 8.070312 65.089844 0.984375 57.917969 0.984375 49.082031 L 0.984375 20.777344 C 0.984375 11.941406 8.070312 4.773438 16.808594 4.773438 L 45.476562 4.773438 C 54.210938 4.773438 61.300781 11.941406 61.300781 20.777344 L 61.300781 49.082031 C 61.300781 57.917969 54.210938 65.089844 45.476562 65.089844 Z M 45.476562 65.089844 " clip-rule="nonzero"/></clipPath><linearGradient x1="10.225516" gradientTransform="matrix(0.076963, 0, 0, 0.0778483, 0.3674, 3.72058)" y1="11.274524" x2="789.475453" gradientUnits="userSpaceOnUse" y2="790.524398" id="a0dbe70666"><stop stop-opacity="1" stop-color="rgb(28.199768%, 93.699646%, 67.098999%)" offset="0"/><stop stop-opacity="1" stop-color="rgb(28.199768%, 93.699646%, 67.098999%)" offset="0.0625"/><stop stop-opacity="1" stop-color="rgb(28.198242%, 93.684387%, 67.106628%)" offset="0.078125"/><stop stop-opacity="1" stop-color="rgb(28.193665%, 93.539429%, 67.192078%)" offset="0.0859375"/><stop stop-opacity="1" stop-color="rgb(28.184509%, 93.276978%, 67.344666%)" offset="0.09375"/><stop stop-opacity="1" stop-color="rgb(28.175354%, 93.014526%, 67.498779%)" offset="0.101562"/><stop stop-opacity="1" stop-color="rgb(28.166199%, 92.752075%, 67.651367%)" offset="0.109375"/><stop stop-opacity="1" stop-color="rgb(28.157043%, 92.489624%, 67.805481%)" offset="0.117187"/><stop stop-opacity="1" stop-color="rgb(28.146362%, 92.227173%, 67.958069%)" offset="0.125"/><stop stop-opacity="1" stop-color="rgb(28.137207%, 91.964722%, 68.112183%)" offset="0.132812"/><stop stop-opacity="1" stop-color="rgb(28.128052%, 91.703796%, 68.264771%)" offset="0.140625"/><stop stop-opacity="1" stop-color="rgb(28.118896%, 91.441345%, 68.417358%)" offset="0.148437"/><stop stop-opacity="1" stop-color="rgb(28.109741%, 91.178894%, 68.571472%)" offset="0.15625"/><stop stop-opacity="1" stop-color="rgb(28.100586%, 90.916443%, 68.72406%)" offset="0.164062"/><stop stop-opacity="1" stop-color="rgb(28.091431%, 90.653992%, 68.878174%)" offset="0.171875"/><stop stop-opacity="1" stop-color="rgb(28.082275%, 90.391541%, 69.030762%)" offset="0.179688"/><stop stop-opacity="1" stop-color="rgb(28.07312%, 90.129089%, 69.184875%)" offset="0.1875"/><stop stop-opacity="1" stop-color="rgb(28.063965%, 89.866638%, 69.337463%)" offset="0.195312"/><stop stop-opacity="1" stop-color="rgb(28.05481%, 89.604187%, 69.490051%)" offset="0.203125"/><stop stop-opacity="1" stop-color="rgb(28.045654%, 89.341736%, 69.644165%)" offset="0.210937"/><stop stop-opacity="1" stop-color="rgb(28.034973%, 89.079285%, 69.796753%)" offset="0.21875"/><stop stop-opacity="1" stop-color="rgb(28.025818%, 88.816833%, 69.950867%)" offset="0.226562"/><stop stop-opacity="1" stop-color="rgb(28.016663%, 88.554382%, 70.103455%)" offset="0.234375"/><stop stop-opacity="1" stop-color="rgb(28.007507%, 88.291931%, 70.257568%)" offset="0.242187"/><stop stop-opacity="1" stop-color="rgb(27.998352%, 88.02948%, 70.410156%)" offset="0.25"/><stop stop-opacity="1" stop-color="rgb(27.989197%, 87.767029%, 70.562744%)" offset="0.257812"/><stop stop-opacity="1" stop-color="rgb(27.980042%, 87.504578%, 70.716858%)" offset="0.265625"/><stop stop-opacity="1" stop-color="rgb(27.970886%, 87.242126%, 70.869446%)" offset="0.273437"/><stop stop-opacity="1" stop-color="rgb(27.961731%, 86.979675%, 71.02356%)" offset="0.28125"/><stop stop-opacity="1" stop-color="rgb(27.952576%, 86.717224%, 71.176147%)" offset="0.289062"/><stop stop-opacity="1" stop-color="rgb(27.94342%, 86.456299%, 71.330261%)" offset="0.296875"/><stop stop-opacity="1" stop-color="rgb(27.932739%, 86.193848%, 71.482849%)" offset="0.304688"/><stop stop-opacity="1" stop-color="rgb(27.923584%, 85.931396%, 71.635437%)" offset="0.3125"/><stop stop-opacity="1" stop-color="rgb(27.914429%, 85.668945%, 71.789551%)" offset="0.320312"/><stop stop-opacity="1" stop-color="rgb(27.905273%, 85.406494%, 71.942139%)" offset="0.328125"/><stop stop-opacity="1" stop-color="rgb(27.896118%, 85.144043%, 72.096252%)" offset="0.335937"/><stop stop-opacity="1" stop-color="rgb(27.886963%, 84.881592%, 72.24884%)" offset="0.34375"/><stop stop-opacity="1" stop-color="rgb(27.877808%, 84.619141%, 72.402954%)" offset="0.351562"/><stop stop-opacity="1" stop-color="rgb(27.868652%, 84.356689%, 72.555542%)" offset="0.359375"/><stop stop-opacity="1" stop-color="rgb(27.859497%, 84.094238%, 72.709656%)" offset="0.367187"/><stop stop-opacity="1" stop-color="rgb(27.850342%, 83.831787%, 72.862244%)" offset="0.375"/><stop stop-opacity="1" stop-color="rgb(27.841187%, 83.569336%, 73.014832%)" offset="0.382812"/><stop stop-opacity="1" stop-color="rgb(27.832031%, 83.306885%, 73.168945%)" offset="0.390625"/><stop stop-opacity="1" stop-color="rgb(27.82135%, 83.044434%, 73.321533%)" offset="0.398437"/><stop stop-opacity="1" stop-color="rgb(27.812195%, 82.781982%, 73.475647%)" offset="0.40625"/><stop stop-opacity="1" stop-color="rgb(27.80304%, 82.518005%, 73.628235%)" offset="0.414062"/><stop stop-opacity="1" stop-color="rgb(27.789307%, 82.235718%, 73.79303%)" offset="0.421875"/><stop stop-opacity="1" stop-color="rgb(27.772522%, 81.933594%, 73.968506%)" offset="0.429687"/><stop stop-opacity="1" stop-color="rgb(27.755737%, 81.63147%, 74.142456%)" offset="0.4375"/><stop stop-opacity="1" stop-color="rgb(27.738953%, 81.329346%, 74.317932%)" offset="0.445312"/><stop stop-opacity="1" stop-color="rgb(27.722168%, 81.025696%, 74.493408%)" offset="0.453125"/><stop stop-opacity="1" stop-color="rgb(27.705383%, 80.723572%, 74.668884%)" offset="0.460937"/><stop stop-opacity="1" stop-color="rgb(27.688599%, 80.421448%, 74.842834%)" offset="0.46875"/><stop stop-opacity="1" stop-color="rgb(27.671814%, 80.119324%, 75.018311%)" offset="0.476562"/><stop stop-opacity="1" stop-color="rgb(27.655029%, 79.8172%, 75.193787%)" offset="0.484375"/><stop stop-opacity="1" stop-color="rgb(27.636719%, 79.51355%, 75.367737%)" offset="0.492187"/><stop stop-opacity="1" stop-color="rgb(27.619934%, 79.211426%, 75.543213%)" offset="0.497145"/><stop stop-opacity="1" stop-color="rgb(27.612305%, 79.060364%, 75.631714%)" offset="0.5"/><stop stop-opacity="1" stop-color="rgb(27.603149%, 78.909302%, 75.718689%)" offset="0.502855"/><stop stop-opacity="1" stop-color="rgb(27.59552%, 78.75824%, 75.805664%)" offset="0.507812"/><stop stop-opacity="1" stop-color="rgb(27.586365%, 78.607178%, 75.892639%)" offset="0.515625"/><stop stop-opacity="1" stop-color="rgb(27.56958%, 78.305054%, 76.068115%)" offset="0.523437"/><stop stop-opacity="1" stop-color="rgb(27.552795%, 78.001404%, 76.243591%)" offset="0.53125"/><stop stop-opacity="1" stop-color="rgb(27.536011%, 77.69928%, 76.417542%)" offset="0.539062"/><stop stop-opacity="1" stop-color="rgb(27.519226%, 77.397156%, 76.593018%)" offset="0.546875"/><stop stop-opacity="1" stop-color="rgb(27.502441%, 77.095032%, 76.768494%)" offset="0.554687"/><stop stop-opacity="1" stop-color="rgb(27.485657%, 76.792908%, 76.942444%)" offset="0.5625"/><stop stop-opacity="1" stop-color="rgb(27.468872%, 76.490784%, 77.11792%)" offset="0.570312"/><stop stop-opacity="1" stop-color="rgb(27.452087%, 76.187134%, 77.293396%)" offset="0.578125"/><stop stop-opacity="1" stop-color="rgb(27.435303%, 75.88501%, 77.468872%)" offset="0.585937"/><stop stop-opacity="1" stop-color="rgb(27.418518%, 75.582886%, 77.642822%)" offset="0.59375"/><stop stop-opacity="1" stop-color="rgb(27.401733%, 75.280762%, 77.818298%)" offset="0.601562"/><stop stop-opacity="1" stop-color="rgb(27.383423%, 74.978638%, 77.993774%)" offset="0.609375"/><stop stop-opacity="1" stop-color="rgb(27.366638%, 74.674988%, 78.167725%)" offset="0.617187"/><stop stop-opacity="1" stop-color="rgb(27.349854%, 74.372864%, 78.343201%)" offset="0.625"/><stop stop-opacity="1" stop-color="rgb(27.333069%, 74.07074%, 78.518677%)" offset="0.632812"/><stop stop-opacity="1" stop-color="rgb(27.316284%, 73.768616%, 78.692627%)" offset="0.640625"/><stop stop-opacity="1" stop-color="rgb(27.2995%, 73.466492%, 78.868103%)" offset="0.648437"/><stop stop-opacity="1" stop-color="rgb(27.282715%, 73.162842%, 79.043579%)" offset="0.65625"/><stop stop-opacity="1" stop-color="rgb(27.26593%, 72.860718%, 79.217529%)" offset="0.664062"/><stop stop-opacity="1" stop-color="rgb(27.249146%, 72.558594%, 79.393005%)" offset="0.671875"/><stop stop-opacity="1" stop-color="rgb(27.232361%, 72.25647%, 79.568481%)" offset="0.679687"/><stop stop-opacity="1" stop-color="rgb(27.215576%, 71.954346%, 79.742432%)" offset="0.6875"/><stop stop-opacity="1" stop-color="rgb(27.198792%, 71.652222%, 79.917908%)" offset="0.695312"/><stop stop-opacity="1" stop-color="rgb(27.182007%, 71.348572%, 80.093384%)" offset="0.703125"/><stop stop-opacity="1" stop-color="rgb(27.165222%, 71.046448%, 80.26886%)" offset="0.710937"/><stop stop-opacity="1" stop-color="rgb(27.148438%, 70.744324%, 80.44281%)" offset="0.71875"/><stop stop-opacity="1" stop-color="rgb(27.130127%, 70.4422%, 80.618286%)" offset="0.726562"/><stop stop-opacity="1" stop-color="rgb(27.113342%, 70.140076%, 80.793762%)" offset="0.734375"/><stop stop-opacity="1" stop-color="rgb(27.096558%, 69.836426%, 80.967712%)" offset="0.742187"/><stop stop-opacity="1" stop-color="rgb(27.079773%, 69.534302%, 81.143188%)" offset="0.75"/><stop stop-opacity="1" stop-color="rgb(27.062988%, 69.232178%, 81.318665%)" offset="0.757812"/><stop stop-opacity="1" stop-color="rgb(27.046204%, 68.930054%, 81.492615%)" offset="0.765625"/><stop stop-opacity="1" stop-color="rgb(27.029419%, 68.62793%, 81.668091%)" offset="0.773438"/><stop stop-opacity="1" stop-color="rgb(27.012634%, 68.32428%, 81.843567%)" offset="0.78125"/><stop stop-opacity="1" stop-color="rgb(26.99585%, 68.022156%, 82.017517%)" offset="0.789062"/><stop stop-opacity="1" stop-color="rgb(26.979065%, 67.720032%, 82.192993%)" offset="0.796875"/><stop stop-opacity="1" stop-color="rgb(26.96228%, 67.417908%, 82.368469%)" offset="0.804687"/><stop stop-opacity="1" stop-color="rgb(26.945496%, 67.115784%, 82.542419%)" offset="0.8125"/><stop stop-opacity="1" stop-color="rgb(26.928711%, 66.81366%, 82.717896%)" offset="0.820312"/><stop stop-opacity="1" stop-color="rgb(26.911926%, 66.51001%, 82.893372%)" offset="0.828125"/><stop stop-opacity="1" stop-color="rgb(26.895142%, 66.207886%, 83.067322%)" offset="0.835937"/><stop stop-opacity="1" stop-color="rgb(26.876831%, 65.905762%, 83.242798%)" offset="0.84375"/><stop stop-opacity="1" stop-color="rgb(26.860046%, 65.603638%, 83.418274%)" offset="0.851562"/><stop stop-opacity="1" stop-color="rgb(26.843262%, 65.301514%, 83.59375%)" offset="0.859375"/><stop stop-opacity="1" stop-color="rgb(26.826477%, 64.997864%, 83.7677%)" offset="0.867188"/><stop stop-opacity="1" stop-color="rgb(26.809692%, 64.69574%, 83.943176%)" offset="0.875"/><stop stop-opacity="1" stop-color="rgb(26.792908%, 64.393616%, 84.118652%)" offset="0.882812"/><stop stop-opacity="1" stop-color="rgb(26.776123%, 64.091492%, 84.292603%)" offset="0.890625"/><stop stop-opacity="1" stop-color="rgb(26.759338%, 63.789368%, 84.468079%)" offset="0.898437"/><stop stop-opacity="1" stop-color="rgb(26.742554%, 63.487244%, 84.643555%)" offset="0.90625"/><stop stop-opacity="1" stop-color="rgb(26.725769%, 63.183594%, 84.817505%)" offset="0.914062"/><stop stop-opacity="1" stop-color="rgb(26.708984%, 62.88147%, 84.992981%)" offset="0.921875"/><stop stop-opacity="1" stop-color="rgb(26.699829%, 62.715149%, 85.090637%)" offset="0.9375"/><stop stop-opacity="1" stop-color="rgb(26.699829%, 62.69989%, 85.099792%)" offset="1"/></linearGradient></defs><g clip-path="url(#b73b7a76a0)"><g clip-path="url(#b6d6ec4995)"><path fill="url(#a0dbe70666)" d="M 0.984375 4.773438 L 0.984375 65.089844 L 61.300781 65.089844 L 61.300781 4.773438 Z M 0.984375 4.773438 " fill-rule="nonzero"/></g></g><path fill="#ffffff" d="M 30.007812 15.15625 C 31.339844 15.15625 33.15625 14.738281 34.703125 14.65625 C 39.457031 14.402344 44.332031 15.222656 47.117188 18.933594 C 50.707031 23.71875 48.957031 31.367188 46.324219 36.210938 C 43.445312 41.511719 40.152344 44.675781 35.8125 47.925781 C 34.683594 48.773438 34.152344 49.398438 33.144531 49.527344 C 32.269531 48.644531 31.050781 48.097656 29.710938 48.097656 C 27.039062 48.097656 24.871094 50.265625 24.871094 52.9375 C 24.871094 55.609375 27.039062 57.777344 29.710938 57.777344 C 32.363281 57.777344 34.519531 55.636719 34.546875 52.984375 C 34.804688 52.832031 35.15625 52.632812 35.660156 52.335938 C 36.882812 51.621094 38.050781 50.910156 39.046875 50.167969 L 42.09375 47.660156 C 50.542969 40.488281 56.632812 25.660156 47.660156 17.390625 C 41.511719 11.722656 32.109375 15.101562 30.007812 15.15625 Z M 30.007812 15.15625 " fill-opacity="1" fill-rule="evenodd"/><path fill="#ffffff" d="M 27.984375 47.203125 C 25.570312 45.761719 24.320312 45.714844 21.042969 43.222656 C 13.847656 37.757812 9.726562 28.035156 15.371094 20.734375 C 19.707031 15.121094 29.382812 18.890625 31.175781 21.183594 C 31.4375 21.527344 31.605469 21.929688 31.730469 22.367188 C 31.535156 22.894531 31.425781 23.457031 31.425781 24.050781 C 31.425781 26.722656 33.59375 28.890625 36.265625 28.890625 C 38.9375 28.890625 41.105469 26.722656 41.105469 24.050781 C 41.105469 21.378906 38.9375 19.210938 36.265625 19.210938 C 35.835938 19.210938 35.417969 19.265625 35.023438 19.375 C 34.640625 19.191406 34.140625 18.921875 33.441406 18.515625 C 31.050781 17.125 28.726562 15.8125 25.53125 15.3125 C 21.871094 14.734375 19.269531 15.152344 16.488281 16.695312 C 5.964844 22.539062 9.109375 34.425781 16.964844 41.550781 C 19.226562 43.605469 25.171875 46.625 27.984375 47.203125 Z M 27.984375 47.203125 " fill-opacity="1" fill-rule="evenodd"/><path fill="#c1ff72" d="M 22.402344 27.875 C 17.105469 27.875 18.085938 26.777344 18.121094 32.242188 L 22.398438 32.335938 L 22.402344 36.613281 L 26.847656 36.605469 L 26.847656 32.410156 L 31.121094 32.316406 L 31.128906 27.890625 L 26.890625 27.867188 L 26.84375 23.597656 L 22.402344 23.597656 Z M 22.402344 27.875 " fill-opacity="1" fill-rule="evenodd"/><g fill="#ffffff" fill-opacity="1"><g transform="translate(79.457351, 50.565234)"><g><path d="M 7.859375 0 C 6.316406 0 5.144531 -0.398438 4.34375 -1.203125 C 3.539062 -2.003906 3.140625 -3.160156 3.140625 -4.671875 L 3.140625 -29.953125 C 3.140625 -31.460938 3.539062 -32.617188 4.34375 -33.421875 C 5.144531 -34.222656 6.316406 -34.625 7.859375 -34.625 L 17.484375 -34.625 C 23.503906 -34.625 28.160156 -33.117188 31.453125 -30.109375 C 34.742188 -27.097656 36.390625 -22.835938 36.390625 -17.328125 C 36.390625 -14.578125 35.960938 -12.128906 35.109375 -9.984375 C 34.265625 -7.847656 33.039062 -6.035156 31.4375 -4.546875 C 29.832031 -3.054688 27.859375 -1.925781 25.515625 -1.15625 C 23.171875 -0.382812 20.492188 0 17.484375 0 Z M 12.171875 -7.3125 L 16.890625 -7.3125 C 18.628906 -7.3125 20.128906 -7.523438 21.390625 -7.953125 C 22.648438 -8.378906 23.695312 -9 24.53125 -9.8125 C 25.363281 -10.632812 25.984375 -11.664062 26.390625 -12.90625 C 26.804688 -14.15625 27.015625 -15.628906 27.015625 -17.328125 C 27.015625 -20.734375 26.175781 -23.25 24.5 -24.875 C 22.832031 -26.5 20.296875 -27.3125 16.890625 -27.3125 L 12.171875 -27.3125 Z M 12.171875 -7.3125 "/></g></g></g><g fill="#ffffff" fill-opacity="1"><g transform="translate(115.348363, 50.565234)"><g><path d="M 19.84375 0.546875 C 16.332031 0.546875 13.25 -0.195312 10.59375 -1.6875 C 7.945312 -3.175781 5.894531 -5.265625 4.4375 -7.953125 C 2.988281 -10.640625 2.265625 -13.765625 2.265625 -17.328125 C 2.265625 -20.015625 2.679688 -22.453125 3.515625 -24.640625 C 4.347656 -26.835938 5.539062 -28.722656 7.09375 -30.296875 C 8.644531 -31.867188 10.5 -33.070312 12.65625 -33.90625 C 14.820312 -34.738281 17.21875 -35.15625 19.84375 -35.15625 C 23.34375 -35.15625 26.410156 -34.421875 29.046875 -32.953125 C 31.679688 -31.484375 33.734375 -29.410156 35.203125 -26.734375 C 36.679688 -24.066406 37.421875 -20.929688 37.421875 -17.328125 C 37.421875 -14.648438 37.003906 -12.210938 36.171875 -10.015625 C 35.335938 -7.828125 34.140625 -5.9375 32.578125 -4.34375 C 31.023438 -2.757812 29.164062 -1.546875 27 -0.703125 C 24.84375 0.128906 22.457031 0.546875 19.84375 0.546875 Z M 19.84375 -7.015625 C 21.570312 -7.015625 23.039062 -7.425781 24.25 -8.25 C 25.46875 -9.070312 26.40625 -10.25 27.0625 -11.78125 C 27.71875 -13.320312 28.046875 -15.171875 28.046875 -17.328125 C 28.046875 -20.578125 27.320312 -23.097656 25.875 -24.890625 C 24.4375 -26.691406 22.425781 -27.59375 19.84375 -27.59375 C 18.132812 -27.59375 16.664062 -27.191406 15.4375 -26.390625 C 14.21875 -25.585938 13.28125 -24.425781 12.625 -22.90625 C 11.96875 -21.382812 11.640625 -19.523438 11.640625 -17.328125 C 11.640625 -14.085938 12.359375 -11.554688 13.796875 -9.734375 C 15.234375 -7.921875 17.25 -7.015625 19.84375 -7.015625 Z M 19.84375 -7.015625 "/></g></g></g><g fill="#ffffff" fill-opacity="1"><g transform="translate(152.270462, 50.565234)"><g><path d="M 7.65625 0.4375 C 6.21875 0.4375 5.101562 0.0351562 4.3125 -0.765625 C 3.53125 -1.566406 3.140625 -2.6875 3.140625 -4.125 L 3.140625 -30.5 C 3.140625 -32 3.53125 -33.132812 4.3125 -33.90625 C 5.101562 -34.675781 6.21875 -35.0625 7.65625 -35.0625 C 9.132812 -35.0625 10.253906 -34.675781 11.015625 -33.90625 C 11.785156 -33.132812 12.171875 -32 12.171875 -30.5 L 12.171875 -19.796875 L 12.28125 -19.796875 L 24.21875 -32.953125 C 24.832031 -33.609375 25.488281 -34.125 26.1875 -34.5 C 26.894531 -34.875 27.691406 -35.0625 28.578125 -35.0625 C 29.953125 -35.0625 30.941406 -34.707031 31.546875 -34 C 32.160156 -33.300781 32.441406 -32.484375 32.390625 -31.546875 C 32.335938 -30.617188 31.953125 -29.757812 31.234375 -28.96875 L 19.34375 -16.359375 L 19.34375 -20.03125 L 31.828125 -5.9375 C 32.671875 -4.988281 33.09375 -4.015625 33.09375 -3.015625 C 33.09375 -2.015625 32.757812 -1.1875 32.09375 -0.53125 C 31.425781 0.113281 30.4375 0.4375 29.125 0.4375 C 28.007812 0.4375 27.113281 0.21875 26.4375 -0.21875 C 25.769531 -0.664062 25.046875 -1.328125 24.265625 -2.203125 L 12.28125 -15.609375 L 12.171875 -15.609375 L 12.171875 -4.125 C 12.171875 -2.6875 11.796875 -1.566406 11.046875 -0.765625 C 10.296875 0.0351562 9.164062 0.4375 7.65625 0.4375 Z M 7.65625 0.4375 "/></g></g></g><g fill="#ffffff" fill-opacity="1"><g transform="translate(184.528109, 50.565234)"><g><path d="M 7.859375 0 C 6.316406 0 5.144531 -0.398438 4.34375 -1.203125 C 3.539062 -2.003906 3.140625 -3.160156 3.140625 -4.671875 L 3.140625 -29.953125 C 3.140625 -31.460938 3.539062 -32.617188 4.34375 -33.421875 C 5.144531 -34.222656 6.316406 -34.625 7.859375 -34.625 L 17.484375 -34.625 C 23.503906 -34.625 28.160156 -33.117188 31.453125 -30.109375 C 34.742188 -27.097656 36.390625 -22.835938 36.390625 -17.328125 C 36.390625 -14.578125 35.960938 -12.128906 35.109375 -9.984375 C 34.265625 -7.847656 33.039062 -6.035156 31.4375 -4.546875 C 29.832031 -3.054688 27.859375 -1.925781 25.515625 -1.15625 C 23.171875 -0.382812 20.492188 0 17.484375 0 Z M 12.171875 -7.3125 L 16.890625 -7.3125 C 18.628906 -7.3125 20.128906 -7.523438 21.390625 -7.953125 C 22.648438 -8.378906 23.695312 -9 24.53125 -9.8125 C 25.363281 -10.632812 25.984375 -11.664062 26.390625 -12.90625 C 26.804688 -14.15625 27.015625 -15.628906 27.015625 -17.328125 C 27.015625 -20.734375 26.175781 -23.25 24.5 -24.875 C 22.832031 -26.5 20.296875 -27.3125 16.890625 -27.3125 L 12.171875 -27.3125 Z M 12.171875 -7.3125 "/></g></g></g><g fill="#ffffff" fill-opacity="1"><g transform="translate(220.419118, 50.565234)"><g><path d="M 19.84375 0.546875 C 16.332031 0.546875 13.25 -0.195312 10.59375 -1.6875 C 7.945312 -3.175781 5.894531 -5.265625 4.4375 -7.953125 C 2.988281 -10.640625 2.265625 -13.765625 2.265625 -17.328125 C 2.265625 -20.015625 2.679688 -22.453125 3.515625 -24.640625 C 4.347656 -26.835938 5.539062 -28.722656 7.09375 -30.296875 C 8.644531 -31.867188 10.5 -33.070312 12.65625 -33.90625 C 14.820312 -34.738281 17.21875 -35.15625 19.84375 -35.15625 C 23.34375 -35.15625 26.410156 -34.421875 29.046875 -32.953125 C 31.679688 -31.484375 33.734375 -29.410156 35.203125 -26.734375 C 36.679688 -24.066406 37.421875 -20.929688 37.421875 -17.328125 C 37.421875 -14.648438 37.003906 -12.210938 36.171875 -10.015625 C 35.335938 -7.828125 34.140625 -5.9375 32.578125 -4.34375 C 31.023438 -2.757812 29.164062 -1.546875 27 -0.703125 C 24.84375 0.128906 22.457031 0.546875 19.84375 0.546875 Z M 19.84375 -7.015625 C 21.570312 -7.015625 23.039062 -7.425781 24.25 -8.25 C 25.46875 -9.070312 26.40625 -10.25 27.0625 -11.78125 C 27.71875 -13.320312 28.046875 -15.171875 28.046875 -17.328125 C 28.046875 -20.578125 27.320312 -23.097656 25.875 -24.890625 C 24.4375 -26.691406 22.425781 -27.59375 19.84375 -27.59375 C 18.132812 -27.59375 16.664062 -27.191406 15.4375 -26.390625 C 14.21875 -25.585938 13.28125 -24.425781 12.625 -22.90625 C 11.96875 -21.382812 11.640625 -19.523438 11.640625 -17.328125 C 11.640625 -14.085938 12.359375 -11.554688 13.796875 -9.734375 C 15.234375 -7.921875 17.25 -7.015625 19.84375 -7.015625 Z M 19.84375 -7.015625 "/></g></g></g><g fill="#ffffff" fill-opacity="1"><g transform="translate(257.341214, 50.565234)"><g><path d="M 20.625 0.546875 C 16.789062 0.546875 13.5 -0.1875 10.75 -1.65625 C 8 -3.132812 5.894531 -5.21875 4.4375 -7.90625 C 2.988281 -10.59375 2.265625 -13.734375 2.265625 -17.328125 C 2.265625 -20.015625 2.679688 -22.453125 3.515625 -24.640625 C 4.347656 -26.835938 5.554688 -28.722656 7.140625 -30.296875 C 8.734375 -31.867188 10.664062 -33.070312 12.9375 -33.90625 C 15.21875 -34.738281 17.78125 -35.15625 20.625 -35.15625 C 22.132812 -35.15625 23.695312 -34.984375 25.3125 -34.640625 C 26.9375 -34.296875 28.367188 -33.78125 29.609375 -33.09375 C 30.523438 -32.601562 31.160156 -31.984375 31.515625 -31.234375 C 31.878906 -30.484375 32.003906 -29.710938 31.890625 -28.921875 C 31.773438 -28.140625 31.488281 -27.4375 31.03125 -26.8125 C 30.570312 -26.1875 29.984375 -25.769531 29.265625 -25.5625 C 28.546875 -25.351562 27.757812 -25.457031 26.90625 -25.875 C 25.925781 -26.332031 24.953125 -26.6875 23.984375 -26.9375 C 23.023438 -27.1875 22.019531 -27.3125 20.96875 -27.3125 C 18.9375 -27.3125 17.238281 -26.925781 15.875 -26.15625 C 14.519531 -25.382812 13.5 -24.257812 12.8125 -22.78125 C 12.125 -21.3125 11.78125 -19.492188 11.78125 -17.328125 C 11.78125 -15.171875 12.125 -13.347656 12.8125 -11.859375 C 13.5 -10.367188 14.519531 -9.238281 15.875 -8.46875 C 17.238281 -7.695312 18.9375 -7.3125 20.96875 -7.3125 C 21.820312 -7.3125 22.738281 -7.414062 23.71875 -7.625 C 24.695312 -7.84375 25.664062 -8.179688 26.625 -8.640625 C 27.601562 -9.066406 28.476562 -9.179688 29.25 -8.984375 C 30.019531 -8.785156 30.640625 -8.390625 31.109375 -7.796875 C 31.585938 -7.210938 31.890625 -6.535156 32.015625 -5.765625 C 32.148438 -4.992188 32.046875 -4.234375 31.703125 -3.484375 C 31.359375 -2.734375 30.757812 -2.128906 29.90625 -1.671875 C 28.757812 -0.984375 27.34375 -0.441406 25.65625 -0.046875 C 23.96875 0.347656 22.289062 0.546875 20.625 0.546875 Z M 20.625 0.546875 "/></g></g></g></svg>